<svg width="50" height="50" viewBox="0 0 50 50" fill="none" xmlns="http://www.w3.org/2000/svg">
<g clip-path="url(#clip0_1_224)">
<path fill-rule="evenodd" clip-rule="evenodd" d="M45.5377 16.0516L43.8983 17.6225C40.3462 14.6558 35.7917 12.9965 31.0562 12.9965C27.8679 12.9965 24.6813 13.782 21.9489 15.1778L28.8703 8.54553C29.4168 8.89408 30.0538 9.06917 30.6925 9.06917C31.6027 9.06917 32.5146 8.72062 33.2421 8.02189C34.6988 6.62605 34.6988 4.44312 33.2421 3.04728C32.5129 2.34855 31.6027 2 30.6925 2C29.7823 2 28.8703 2.34855 28.1428 3.04728C26.9594 4.26966 26.7767 6.01405 27.5964 7.32315L18.8528 15.7014L17.2134 14.1305L12.7511 18.4064L14.3906 19.9773L5.46429 28.5307C4.91782 28.1821 4.28083 28.007 3.64215 28.007C2.73193 28.007 1.82001 28.3556 1.09252 29.0543C-0.364172 30.4501 -0.364172 32.6331 1.09252 34.0289C1.82171 34.6393 2.73193 34.9895 3.64215 34.9895C4.55236 34.9895 5.46429 34.6409 6.19178 33.9422C7.37523 32.8082 7.55796 31.0621 6.73825 29.6663L13.6597 23.0341C10.0171 29.7547 10.8368 38.133 16.2093 44.0665L14.5699 45.7241L19.1244 50L23.5866 45.7241L19.1244 41.4483L17.5755 42.9325C12.2935 36.9973 12.0202 28.4456 16.4825 22.1619L17.2117 22.8606L21.7662 18.5847L20.9465 17.886C23.8616 15.8782 27.4137 14.8309 31.0562 14.8309C35.3375 14.8309 39.3438 16.3151 42.6226 18.9333L40.9832 20.4175L45.5377 24.6933L50 20.4175L45.5377 16.0533V16.0516ZM20.9702 47.6596L19.0638 49.5659L17.1575 47.6596L19.0638 45.7532L20.9702 47.6596ZM29.3226 4.62977C29.6851 4.26722 30.1396 4.08509 30.5941 4.08509C31.0485 4.08509 31.5013 4.26722 31.8655 4.62977C32.5924 5.35658 32.5924 6.44595 31.8655 7.17105C31.503 7.5336 31.0485 7.71573 30.5941 7.71573C30.1396 7.71573 29.6868 7.5336 29.3226 7.17105C28.5958 6.53616 28.5958 5.35488 29.3226 4.62977ZM4.90214 34.1328C4.53958 34.4953 4.08511 34.6774 3.63065 34.6774C3.17618 34.6774 2.72341 34.4953 2.35916 34.1328C1.9966 33.8604 1.81448 33.4059 1.81448 32.8613C1.81448 32.4068 1.9966 31.954 2.35916 31.5898C2.72171 31.2255 3.17618 31.0451 3.63065 31.0451C4.08511 31.0451 4.53788 31.2272 4.90214 31.5898C5.62894 32.3166 5.62894 33.4962 4.90214 34.1311V34.1328ZM17.0672 21.3328L15.1609 19.4264L17.0672 17.52L18.9736 19.4264L17.0672 21.3328ZM45.3906 23.2391L43.4843 21.3328L45.3906 19.4264L47.297 21.3328L45.3906 23.2391Z" fill="#333333"/>
</g>
<defs>
<clipPath id="clip0_1_224">
<rect width="50" height="50" fill="white"/>
</clipPath>
</defs>
</svg>
